          888    d8P         d8888 8888888b.  d8b 888b    888        d8888 
          888   d8P         d88888 888   Y88b Y8P 8888b   888       d88888 
          888  d8P         d88P888 888    888     88888b  888      d88P888 
          888d88K         d88P 888 888   d88P 888 888Y88b 888     d88P 888 
          8888888b       d88P  888 8888888P"  888 888 Y88b888    d88P  888 
          888  Y88b     d88P   888 888 T88b   888 888  Y88888   d88P   888 
          888   Y88b   d8888888888 888  T88b  888 888   Y8888  d8888888888 
          888    Y88b d88P     888 888   T88b 888 888    Y888 d88P     888 
              
            The.Last.Days.of.Disco.1998.CRITERION.DVDRip.x264.AC3-KARiNA          
                                                             
Synopsis.

The Last Days of Disco | USA | 1998 | Directed by Whit Stillman
                                  
The Last Days of Disco is a clever, comic return to the nighttime party scene in early eighties Manhattan from director Whit Stillman (Metropolitan). At the center of the film’s roundelay of revelers are the icy Charlotte (Kate Beckinsale) and the demure Alice (Chloë Sevigny), by day toiling as publishing house assistants and by night looking for romance and entertainment at a premier, Studio 54–like club. The Last Days of Disco is an affectionate yet unsentimental look at the end of an era, brimming with Stillman’s trademark dry humor.Audio commentary featuring Stillman and actors Chloe Sevigny and Chris Eigeman.

IMdB: http://www.imdb.com/title/tt0120728/ | Rating: 6.1 / 10 (4,719 votes)
                                     
General.
                                                                  
Complete name                    : The.Last.Days.of.Disco.1998.CRITERION.DVDRip.x264.AC3-KARiNA
Format                           : Matroska
File size                        : 2.10 GiB
Duration                         : 1h 53mn
Overall bit rate                 : 2 643 Kbps
Source                           : Criterion NTSC DVD9
                                       
Video.                            

Format                           : AVC
Bit rate                         : 1 951 Kbps
Nominal bit rate                 : 2 000 Kbps
Width                            : 720 pixels
Height                           : 480 pixels
Display aspect ratio             : 16/9
Frame rate                       : 23.976 fps
Standard                         : NTSC
Resolution                       : 24 bits
Colorimetry                      : 4:2:0
Scan type                        : Progressive
Bits/(Pixel*Frame)               : 0.235
Stream size                      : 1.55 GiB (74%)
Title                            : Track 1
Writing library                  : x264 core 65

Audio.                       

Track 1

Format                           : AC-3
Bit rate                         : 448 Kbps
Channel(s)                       : 6 channels
Channel positions                : Front: L C R, Surround: L R, LFE
Sampling rate                    : 48.0 KHz
Stream size                      : 365 MiB (17%)
Title                            : Track 1
Language                         : English

Track 2 - Commentary by Whit Stillman, Chloe Sevigny and Chris Eigeman

Format                           : AC-3
Bit rate mode                    : Constant
Bit rate                         : 192 Kbps
Channel(s)                       : 2 channels
Channel positions                : L R
Sampling rate                    : 48.0 KHz
Stream size                      : 156 MiB (7%)
Title                            : Track 2 (Commentary)
Language                         : English
Chapters.

00:00:00.000                     : :Chapter 1
00:01:26.553                     : :Chapter 2
00:05:42.141                     : :Chapter 3
00:09:14.887                     : :Chapter 4
00:16:43.002                     : :Chapter 5
00:24:08.780                     : :Chapter 6
00:27:31.449                     : :Chapter 7
00:34:39.410                     : :Chapter 8
00:38:05.116                     : :Chapter 9
00:39:24.028                     : :Chapter 10
00:43:18.929                     : :Chapter 11
00:46:31.288                     : :Chapter 12
00:53:20.864                     : :Chapter 13
00:57:13.496                     : :Chapter 14
00:59:56.659                     : :Chapter 15
01:02:38.654                     : :Chapter 16
01:07:36.118                     : :Chapter 17
01:13:08.117                     : :Chapter 18
01:18:07.416                     : :Chapter 19
01:20:18.046                     : :Chapter 20
01:25:27.822                     : :Chapter 21
01:30:30.124                     : :Chapter 22
01:35:06.267                     : :Chapter 23
01:36:58.212                     : :Chapter 24
01:40:20.080                     : :Chapter 25
01:44:31.832                     : :Chapter 26
01:49:16.616                     : :Chapter 27
01:53:54.194                     : :Chapter 28

KARiNA.